<?xml version="1.0" encoding="utf-8"?>
<!-- Generator: Adobe Illustrator 17.0.0, SVG Export Plug-In . SVG Version: 6.00 Build 0)  -->
<!DOCTYPE svg PUBLIC "-//W3C//DTD SVG 1.1//EN" "http://www.w3.org/Graphics/SVG/1.1/DTD/svg11.dtd">
<svg version="1.1" id="Layer_1" xmlns="http://www.w3.org/2000/svg" xmlns:xlink="http://www.w3.org/1999/xlink" x="0px" y="0px"
	 width="595.28px" height="228.947px" viewBox="0 0 595.28 228.947" enable-background="new 0 0 595.28 228.947"
	 xml:space="preserve">
<g>
	<g>
		<path fill-rule="evenodd" clip-rule="evenodd" fill="#121212" d="M148.991,63.151H98.637c-16.014,0-29.12,13.104-29.12,29.123
			c0,29.942,27.372,29.112,48.149,29.112c7.687,0,14.272,4.036,14.272,12.464c0,6.843-5.605,12.446-12.454,12.446H69.844v16.671
			h50.37c16.011,0,29.117-13.105,29.117-29.117c0-18.211-14.35-29.131-31.666-29.131c-10.255,0-30.768,3.44-30.768-12.445
			c0-6.854,5.611-12.457,12.46-12.457h49.633V63.151z"/>
		<polygon fill-rule="evenodd" clip-rule="evenodd" fill="#121212" points="195.483,162.967 212.852,162.967 212.852,79.816 
			243.595,79.816 243.595,63.151 164.741,63.151 164.741,79.816 195.483,79.816 		"/>
		<path fill-rule="evenodd" clip-rule="evenodd" fill="#121212" d="M263.147,141.644h-16.723c-1.632,0-2.968,1.336-2.968,2.963
			v15.831c0,1.629,1.336,2.965,2.968,2.965h17.945v-3.726h-15.816c-0.762,0-1.405-0.624-1.405-1.396v-11.515
			c0-0.774,0.643-1.405,1.405-1.405h14.593V141.644z"/>
		<path fill-rule="evenodd" clip-rule="evenodd" fill="#121212" d="M273.08,145.532h9.118c1.238,0,2.25,1.013,2.25,2.245v9.491
			c0,1.237-1.011,2.249-2.25,2.249h-9.118c-1.247,0-2.252-1.013-2.252-2.249v-9.491C270.828,146.545,271.833,145.532,273.08,145.532
			 M270.547,141.644h14.184c1.915,0,3.506,1.577,3.506,3.505v14.756c0,1.922-1.591,3.498-3.506,3.498h-14.184
			c-1.931,0-3.513-1.577-3.513-3.498v-14.756C267.035,143.221,268.616,141.644,270.547,141.644"/>
		<path fill-rule="evenodd" clip-rule="evenodd" fill="#121212" d="M429.847,141.644h-16.729c-1.632,0-2.965,1.336-2.965,2.963
			v15.831c0,1.629,1.333,2.965,2.965,2.965h17.942v-3.726h-15.8c-0.781,0-1.411-0.624-1.411-1.396v-11.515
			c0-0.774,0.63-1.405,1.411-1.405h14.587V141.644z"/>
		<path fill-rule="evenodd" clip-rule="evenodd" fill="#121212" d="M483.601,145.532h9.118c1.228,0,2.249,1.013,2.249,2.245v9.491
			c0,1.237-1.021,2.249-2.249,2.249h-9.118c-1.244,0-2.256-1.013-2.256-2.249v-9.491
			C481.345,146.545,482.356,145.532,483.601,145.532 M481.068,141.644h14.187c1.922,0,3.5,1.577,3.5,3.505v14.756
			c0,1.922-1.579,3.498-3.5,3.498h-14.187c-1.931,0-3.503-1.577-3.503-3.498v-14.756
			C477.564,143.221,479.136,141.644,481.068,141.644"/>
		<path fill-rule="evenodd" clip-rule="evenodd" fill="#121212" d="M290.471,163.403h3.781V146.37c0-0.657,0.542-1.199,1.206-1.199
			h8.374c0.668,0,1.219,0.542,1.219,1.199v17.033h2.127h2.032V146.37c0-0.657,0.548-1.199,1.207-1.199h8.38
			c0.674,0,1.216,0.542,1.216,1.199v17.033h3.872v-18.411c0-1.837-1.496-3.347-3.343-3.347h-10.648
			c-1.493,0-2.716,1.217-2.716,2.717c0-1.5-1.229-2.717-2.713-2.717h-10.658c-1.837,0-3.336,1.511-3.336,3.347V163.403z"/>
		<path fill-rule="evenodd" clip-rule="evenodd" fill="#121212" d="M326.346,163.403h3.777V146.37c0-0.657,0.551-1.199,1.21-1.199
			h8.383c0.671,0,1.21,0.542,1.21,1.199v17.033h2.13h2.035V146.37c0-0.657,0.542-1.199,1.21-1.199h8.383
			c0.665,0,1.2,0.542,1.2,1.199v17.033h3.888v-18.411c0-1.837-1.506-3.347-3.352-3.347h-10.648c-1.493,0-2.716,1.217-2.716,2.717
			c0-1.5-1.223-2.717-2.71-2.717h-10.655c-1.843,0-3.346,1.511-3.346,3.347V163.403z"/>
		<path fill-rule="evenodd" clip-rule="evenodd" fill="#121212" d="M362.539,141.644h3.879v16.269c0,1.077,0.885,1.964,1.969,1.964
			h8.185v-18.234h3.875v21.759h-14.439c-1.9,0-3.469-1.564-3.469-3.47V141.644z"/>
		<path fill-rule="evenodd" clip-rule="evenodd" fill="#121212" d="M401.309,163.403h-3.881v-16.271
			c0-1.074-0.885-1.961-1.963-1.961h-8.188v18.232h-3.875v-21.759h14.439c1.909,0,3.469,1.561,3.469,3.469V163.403z"/>
		<path fill-rule="evenodd" clip-rule="evenodd" fill="#121212" d="M519.202,163.403h-3.882v-16.271
			c0-1.074-0.888-1.961-1.966-1.961h-8.188v18.232h-3.878v-21.759h14.445c1.906,0,3.469,1.561,3.469,3.469V163.403z"/>
		<rect x="404.179" y="137.026" fill-rule="evenodd" clip-rule="evenodd" fill="#121212" width="3.349" height="3.042"/>
		<rect x="403.836" y="141.641" fill-rule="evenodd" clip-rule="evenodd" fill="#121212" width="3.875" height="21.762"/>
		<path fill-rule="evenodd" clip-rule="evenodd" fill="#121212" d="M439.241,154.193h10.469c0.611,0,1.106,0.495,1.106,1.103v3.439
			c0,0.609-0.495,1.107-1.106,1.107h-10.469c-0.605,0-1.103-0.498-1.103-1.107v-3.439
			C438.139,154.688,438.637,154.193,439.241,154.193 M436.223,150.625h14.593v-3.343c0-1.093-0.888-1.983-1.982-1.983h-12.926
			v-3.655h15.129c1.84,0,3.336,1.501,3.336,3.346v5.635v10.25c0,1.389-1.131,2.527-2.517,2.527h-15.633
			c-1.389,0-2.524-1.137-2.524-2.527v-7.723C433.7,151.759,434.834,150.625,436.223,150.625"/>
		<rect x="471.471" y="137.026" fill-rule="evenodd" clip-rule="evenodd" fill="#121212" width="3.343" height="3.042"/>
		<rect x="471.118" y="141.641" fill-rule="evenodd" clip-rule="evenodd" fill="#121212" width="3.878" height="21.762"/>
		<path fill-rule="evenodd" clip-rule="evenodd" fill="#121212" d="M457.117,135.29h3.875v6.503h7.18
			c0.334,0,0.595,0.271,0.595,0.602v2.68c0,0.327-0.262,0.594-0.595,0.594h-7.18v17.736h-3.875V135.29z"/>
		<path fill-rule="evenodd" clip-rule="evenodd" fill="#121212" d="M524.318,141.644h17.41v3.803h-14.729
			c-0.605,0-1.093,0.495-1.093,1.092v2.963c0,0.606,0.488,1.098,1.093,1.098h3.787h3.881h5.926c1.5,0,2.703,1.219,2.703,2.706v7.33
			c0,1.497-1.203,2.714-2.703,2.714H522.28v-3.796h15.642c0.602,0,1.09-0.496,1.09-1.1v-2.966c0-0.597-0.488-1.085-1.09-1.085
			h-3.255h-3.881h-6.468c-1.484,0-2.703-1.227-2.703-2.717v-7.326C521.615,142.863,522.834,141.644,524.318,141.644"/>
	</g>
</g>
</svg>
